<?xml version="1.0" encoding="UTF-8" standalone="no"?>
<svg
   xmlns:dc="http://purl.org/dc/elements/1.1/"
   xmlns:cc="http://creativecommons.org/ns#"
   xmlns:rdf="http://www.w3.org/1999/02/22-rdf-syntax-ns#"
   xmlns:svg="http://www.w3.org/2000/svg"
   xmlns="http://www.w3.org/2000/svg"
   xmlns:sodipodi="http://sodipodi.sourceforge.net/DTD/sodipodi-0.dtd"
   xmlns:inkscape="http://www.inkscape.org/namespaces/inkscape"
   enable-background="new 0 0 15 15"
   version="1.1"
   viewBox="0 0 15 15"
   id="svg874"
   sodipodi:docname="photo-camera-2027073.svg"
   inkscape:version="0.92.3 (2405546, 2018-03-11)">
  <metadata
     id="metadata880">
    <rdf:RDF>
      <cc:Work
         rdf:about="">
        <dc:format>image/svg+xml</dc:format>
        <dc:type
           rdf:resource="http://purl.org/dc/dcmitype/StillImage" />
      </cc:Work>
    </rdf:RDF>
  </metadata>
  <defs
     id="defs878" />
  <sodipodi:namedview
     pagecolor="#ffffff"
     bordercolor="#666666"
     borderopacity="1"
     objecttolerance="10"
     gridtolerance="10"
     guidetolerance="10"
     inkscape:pageopacity="0"
     inkscape:pageshadow="2"
     inkscape:window-width="1366"
     inkscape:window-height="715"
     id="namedview876"
     showgrid="false"
     inkscape:zoom="15.733333"
     inkscape:cx="-2.5105932"
     inkscape:cy="7.5"
     inkscape:window-x="-8"
     inkscape:window-y="-8"
     inkscape:window-maximized="1"
     inkscape:current-layer="svg874" />
  <rect
     style="fill:#008080;fill-opacity:1;stroke:none;stroke-width:34.26141739;stroke-linecap:round;stroke-linejoin:round;stroke-miterlimit:4;stroke-dasharray:none;stroke-opacity:1"
     id="rect1442"
     width="7.3093219"
     height="6.8644066"
     x="3.6864407"
     y="5.1483049" />
  <path
     inkscape:connector-curvature="0"
     d="m 6.1906779,2.3177966 c -0.554,0 -0.7522,0.5045 -1,1 l -0.5,1 h -2 c -0.831,0 -1.5,0.669 -1.5,1.5 v 5.0000004 c 0,0.831 0.669,1.5 1.5,1.5 H 12.690678 c 0.831,0 1.5,-0.669 1.5,-1.5 V 5.8177966 c 0,-0.831 -0.669,-1.5 -1.5,-1.5 h -2 l -0.5,-1 c -0.2500001,-0.5 -0.4460001,-1 -1.0000001,-1 z m -3.5,3 c 0.2761,0 0.5,0.2239 0.5,0.5 0,0.2761 -0.2239,0.5 -0.5,0.5 -0.2761,0 -0.5,-0.2239 -0.5,-0.5 0,-0.2761 0.2239,-0.5 0.5,-0.5 z m 5,0 c 1.6569,0 3.0000001,1.3431 3.0000001,3 0,1.6569005 -1.3431001,3.0000004 -3.0000001,3.0000004 -1.6569,0 -3,-1.3430999 -3,-3.0000004 0,-1.6569 1.3431,-3 3,-3 z m 0,1.5 c -0.8284,0 -1.5,0.6716 -1.5,1.5 0,0.8284 0.6716,1.5000005 1.5,1.5000005 0.8284,0 1.5,-0.6716005 1.5,-1.5000005 0,-0.8284 -0.6716,-1.5 -1.5,-1.5 z"
     id="path872"
     style="fill:#cccccc" />
</svg>
